<svg width="496" height="432" viewBox="0 0 496 432" fill="none" xmlns="http://www.w3.org/2000/svg">
<g clip-path="url(#clip0_118_370)">
<path d="M447.213 224.82C447.277 278.275 426.615 329.674 389.567 368.211C387.334 370.55 385.04 372.832 382.686 375.057C379.1 378.469 375.393 381.748 371.565 384.895C335.761 414.392 291.062 430.968 244.681 431.948C243.136 431.983 241.585 432 240.028 432C203.038 432 156.513 412.244 114.292 384.895C110.799 382.632 107.337 380.317 103.906 377.95C102.303 376.853 100.707 375.742 99.1186 374.614C82.8346 363.116 67.3778 350.49 52.8623 336.827C43.3585 327.908 34.4464 318.379 26.1827 308.301C-6.25847 268.286 -13.4138 232.231 32.8366 224.82C38.3125 223.945 43.627 223.01 48.7802 222.015C56.2447 220.58 63.3884 219.031 70.2113 217.367C79.4019 215.134 88.0366 212.712 96.1153 210.102C98.8329 209.227 101.488 208.335 104.081 207.425C142.418 193.96 168.077 176.402 185.543 157.352C188.505 154.127 191.237 150.863 193.736 147.561C197.561 142.534 201.035 137.25 204.134 131.746C208.411 124.099 212.004 116.089 214.87 107.809L215.028 107.354C228.924 67.2696 224.696 30.0892 240.028 17.6452C305.563 -35.5537 387.153 40.2065 425.449 129.548C427.38 134.05 429.195 138.579 430.896 143.135C431.66 145.17 432.397 147.209 433.106 149.252C434.972 154.576 436.665 159.913 438.186 165.265C438.769 167.306 439.325 169.345 439.853 171.382C440.419 173.58 440.961 175.773 441.463 177.965C445.189 194.019 447.213 209.851 447.213 224.82Z" fill="#F2F2F2"/>
<path d="M244.681 431.948C243.136 431.983 241.585 432 240.028 432C203.038 432 156.513 412.244 114.292 384.895C110.799 382.632 107.337 380.317 103.906 377.95L106.915 359.639L198.011 347.545L243.731 382.504L244.681 431.948Z" fill="#2F2E41"/>
<path d="M249.067 104.992H236.085C235.683 104.993 235.298 105.152 235.014 105.437C234.729 105.721 234.57 106.106 234.569 106.508V119.495C234.57 119.693 234.609 119.89 234.685 120.074C234.762 120.257 234.873 120.424 235.014 120.564C235.155 120.705 235.322 120.816 235.506 120.891C235.69 120.967 235.887 121.006 236.085 121.005H249.067C249.468 121.005 249.853 120.846 250.137 120.563C250.421 120.28 250.581 119.896 250.583 119.495V106.508C250.582 106.107 250.422 105.722 250.137 105.438C249.853 105.154 249.468 104.994 249.067 104.992Z" fill="white"/>
<path d="M249.067 127.122H236.085C235.683 127.122 235.298 127.282 235.014 127.566C234.729 127.851 234.569 128.236 234.569 128.638V141.625C234.57 141.823 234.609 142.02 234.685 142.204C234.762 142.387 234.873 142.554 235.014 142.694C235.155 142.834 235.322 142.946 235.506 143.021C235.69 143.097 235.887 143.135 236.085 143.135H249.067C249.468 143.135 249.853 142.976 250.137 142.693C250.421 142.41 250.581 142.026 250.583 141.625V128.638C250.582 128.236 250.422 127.852 250.137 127.567C249.853 127.283 249.468 127.123 249.067 127.122Z" fill="#E6E6E6"/>
<path d="M249.067 149.252H236.085C235.683 149.252 235.298 149.412 235.014 149.696C234.729 149.981 234.57 150.366 234.569 150.768V163.749C234.569 163.948 234.608 164.145 234.684 164.329C234.76 164.513 234.872 164.681 235.013 164.821C235.153 164.962 235.321 165.074 235.505 165.15C235.689 165.226 235.886 165.265 236.085 165.265H249.067C249.469 165.264 249.854 165.105 250.139 164.82C250.423 164.536 250.583 164.151 250.583 163.749V150.768C250.582 150.366 250.422 149.981 250.137 149.697C249.853 149.413 249.468 149.253 249.067 149.252Z" fill="#E6E6E6"/>
<path d="M250.56 172.63C250.495 172.28 250.31 171.965 250.038 171.737C249.765 171.509 249.422 171.383 249.067 171.382H236.085C235.683 171.382 235.298 171.542 235.014 171.826C234.729 172.11 234.57 172.496 234.569 172.898V185.878C234.569 186.078 234.608 186.275 234.684 186.459C234.76 186.643 234.872 186.81 235.012 186.951C235.153 187.092 235.321 187.204 235.505 187.28C235.689 187.356 235.886 187.395 236.085 187.394H249.067C249.469 187.394 249.854 187.234 250.139 186.95C250.423 186.666 250.583 186.28 250.583 185.878V172.898C250.584 172.808 250.576 172.718 250.56 172.63Z" fill="#E6E6E6"/>
<path d="M249.656 193.628C249.469 193.551 249.269 193.511 249.067 193.511H236.085C235.886 193.511 235.689 193.55 235.505 193.626C235.321 193.702 235.153 193.814 235.012 193.955C234.872 194.096 234.76 194.263 234.684 194.447C234.608 194.631 234.569 194.828 234.569 195.028V208.008C234.568 208.207 234.607 208.405 234.683 208.589C234.759 208.774 234.87 208.941 235.011 209.082C235.152 209.223 235.32 209.335 235.504 209.411C235.689 209.487 235.886 209.525 236.085 209.524H249.067C249.469 209.524 249.854 209.364 250.139 209.08C250.423 208.796 250.583 208.41 250.583 208.008V195.028C250.582 194.729 250.494 194.438 250.329 194.189C250.164 193.94 249.93 193.745 249.656 193.628Z" fill="#E6E6E6"/>
<path d="M276.335 104.992H263.354C262.952 104.993 262.566 105.152 262.282 105.437C261.998 105.721 261.838 106.106 261.838 106.508V119.495C261.838 119.693 261.877 119.89 261.954 120.074C262.03 120.257 262.142 120.424 262.283 120.564C262.424 120.705 262.591 120.816 262.774 120.891C262.958 120.967 263.155 121.006 263.354 121.005H276.335C276.736 121.005 277.121 120.846 277.405 120.563C277.69 120.28 277.85 119.896 277.851 119.495V106.508C277.85 106.107 277.69 105.722 277.406 105.438C277.122 105.154 276.737 104.994 276.335 104.992Z" fill="#E6E6E6"/>
<path d="M276.335 127.122H263.354C262.952 127.122 262.566 127.282 262.282 127.566C261.998 127.851 261.838 128.236 261.838 128.638V141.625C261.838 141.823 261.877 142.02 261.954 142.204C262.03 142.387 262.142 142.554 262.283 142.694C262.424 142.834 262.591 142.946 262.774 143.021C262.958 143.097 263.155 143.135 263.354 143.135H276.335C276.736 143.135 277.121 142.976 277.405 142.693C277.69 142.41 277.85 142.026 277.851 141.625V128.638C277.85 128.236 277.69 127.852 277.406 127.567C277.122 127.283 276.737 127.123 276.335 127.122Z" fill="#D1CEFA"/>
<path d="M276.335 149.252H263.354C262.952 149.252 262.566 149.412 262.282 149.696C261.998 149.981 261.838 150.366 261.838 150.768V163.749C261.837 163.948 261.876 164.145 261.953 164.329C262.029 164.513 262.14 164.681 262.281 164.821C262.422 164.962 262.589 165.074 262.773 165.15C262.957 165.226 263.155 165.265 263.354 165.265H276.335C276.737 165.264 277.123 165.105 277.407 164.82C277.691 164.536 277.851 164.151 277.851 163.749V150.768C277.85 150.366 277.69 149.981 277.406 149.697C277.122 149.413 276.737 149.253 276.335 149.252Z" fill="#D1CEFA"/>
<path d="M276.335 171.382H263.354C263.036 171.382 262.726 171.482 262.469 171.669C262.211 171.855 262.019 172.118 261.919 172.42C261.866 172.573 261.838 172.735 261.838 172.898V185.878C261.837 186.077 261.876 186.275 261.952 186.459C262.029 186.643 262.14 186.81 262.281 186.951C262.422 187.092 262.589 187.204 262.773 187.28C262.957 187.356 263.155 187.395 263.354 187.394H276.335C276.737 187.394 277.123 187.234 277.407 186.95C277.691 186.666 277.851 186.28 277.851 185.878V172.898C277.85 172.496 277.69 172.111 277.406 171.827C277.122 171.543 276.737 171.383 276.335 171.382Z" fill="#D1CEFA"/>
<path d="M276.335 193.511H263.354C263.155 193.511 262.957 193.55 262.773 193.626C262.589 193.702 262.422 193.814 262.281 193.955C262.14 194.096 262.029 194.263 261.953 194.447C261.876 194.631 261.837 194.828 261.838 195.028V208.008C261.837 208.207 261.876 208.405 261.953 208.589C262.029 208.773 262.14 208.94 262.281 209.081C262.422 209.222 262.589 209.334 262.773 209.41C262.957 209.486 263.155 209.525 263.354 209.524H276.335C276.737 209.524 277.123 209.364 277.407 209.08C277.691 208.796 277.851 208.41 277.851 208.008V195.028C277.851 194.626 277.691 194.24 277.407 193.956C277.123 193.671 276.737 193.512 276.335 193.511Z" fill="#E6E6E6"/>
<path d="M303.604 104.992H290.623C290.221 104.993 289.835 105.152 289.551 105.437C289.266 105.721 289.107 106.106 289.106 106.508V119.495C289.107 119.693 289.146 119.89 289.222 120.074C289.299 120.257 289.41 120.424 289.551 120.564C289.692 120.705 289.859 120.816 290.043 120.891C290.227 120.967 290.424 121.006 290.623 121.005H303.604C304.005 121.005 304.39 120.846 304.674 120.563C304.958 120.28 305.119 119.896 305.12 119.495V106.508C305.119 106.107 304.959 105.722 304.675 105.438C304.39 105.154 304.005 104.994 303.604 104.992Z" fill="#D1CEFA"/>
<path d="M303.604 127.122H290.623C290.221 127.122 289.835 127.282 289.551 127.566C289.266 127.851 289.107 128.236 289.106 128.638V141.625C289.107 141.823 289.146 142.02 289.222 142.204C289.299 142.387 289.41 142.554 289.551 142.694C289.692 142.834 289.859 142.946 290.043 143.021C290.227 143.097 290.424 143.135 290.623 143.135H303.604C304.005 143.135 304.39 142.976 304.674 142.693C304.958 142.41 305.119 142.026 305.12 141.625V128.638C305.119 128.236 304.959 127.852 304.675 127.567C304.39 127.283 304.006 127.123 303.604 127.122Z" fill="#D1CEFA"/>
<path d="M303.604 149.252H290.623C290.221 149.252 289.835 149.412 289.551 149.696C289.266 149.981 289.107 150.366 289.106 150.768V163.749C289.106 163.948 289.145 164.145 289.221 164.329C289.297 164.513 289.409 164.681 289.55 164.821C289.69 164.962 289.858 165.074 290.042 165.15C290.226 165.226 290.423 165.265 290.623 165.265H303.604C304.006 165.264 304.391 165.105 304.676 164.82C304.96 164.536 305.12 164.151 305.12 163.749V150.768C305.119 150.366 304.959 149.981 304.675 149.697C304.39 149.413 304.006 149.253 303.604 149.252Z" fill="#E6E6E6"/>
<path d="M303.604 171.382H290.623C290.221 171.382 289.835 171.542 289.551 171.826C289.266 172.11 289.107 172.496 289.106 172.898V185.878C289.106 186.078 289.145 186.275 289.221 186.459C289.297 186.643 289.409 186.81 289.55 186.951C289.69 187.092 289.858 187.204 290.042 187.28C290.226 187.356 290.423 187.395 290.623 187.394H303.604C304.006 187.394 304.391 187.234 304.676 186.95C304.96 186.666 305.12 186.28 305.12 185.878V172.898C305.119 172.496 304.959 172.111 304.675 171.827C304.39 171.543 304.006 171.383 303.604 171.382Z" fill="#D1CEFA"/>
<path d="M303.604 193.511H290.623C290.423 193.511 290.226 193.55 290.042 193.626C289.858 193.702 289.69 193.814 289.55 193.955C289.409 194.096 289.297 194.263 289.221 194.447C289.145 194.631 289.106 194.828 289.106 195.028V208.008C289.106 208.207 289.145 208.405 289.221 208.589C289.297 208.773 289.409 208.94 289.55 209.081C289.69 209.222 289.858 209.334 290.042 209.41C290.226 209.486 290.423 209.525 290.623 209.524H303.604C304.006 209.524 304.391 209.364 304.676 209.08C304.96 208.796 305.12 208.41 305.12 208.008V195.028C305.12 194.626 304.96 194.24 304.676 193.956C304.391 193.671 304.006 193.512 303.604 193.511Z" fill="#D1CEFA"/>
<path d="M330.872 104.992H317.891C317.489 104.993 317.104 105.152 316.819 105.437C316.535 105.721 316.375 106.106 316.375 106.508V119.495C316.375 119.693 316.415 119.89 316.491 120.074C316.567 120.257 316.679 120.424 316.82 120.564C316.961 120.705 317.128 120.816 317.312 120.891C317.495 120.967 317.692 121.006 317.891 121.005H330.872C331.274 121.005 331.658 120.846 331.943 120.563C332.227 120.28 332.387 119.896 332.389 119.495V106.508C332.387 106.107 332.227 105.722 331.943 105.438C331.659 105.154 331.274 104.994 330.872 104.992Z" fill="#D1CEFA"/>
<path d="M330.872 127.122H317.891C317.489 127.122 317.104 127.282 316.819 127.566C316.535 127.851 316.375 128.236 316.375 128.638V141.625C316.375 141.823 316.415 142.02 316.491 142.204C316.567 142.387 316.679 142.554 316.82 142.694C316.961 142.834 317.128 142.946 317.312 143.021C317.495 143.097 317.692 143.135 317.891 143.135H330.872C331.274 143.135 331.658 142.976 331.943 142.693C332.227 142.41 332.387 142.026 332.389 141.625V128.638C332.387 128.236 332.227 127.852 331.943 127.567C331.659 127.283 331.274 127.123 330.872 127.122Z" fill="white"/>
<path d="M330.872 149.252H317.891C317.489 149.252 317.104 149.412 316.819 149.696C316.535 149.98 316.375 150.366 316.375 150.768V163.749C316.375 163.948 316.414 164.145 316.49 164.329C316.566 164.513 316.677 164.681 316.818 164.821C316.959 164.962 317.126 165.074 317.311 165.15C317.495 165.226 317.692 165.265 317.891 165.265H330.872C331.274 165.264 331.66 165.105 331.944 164.82C332.229 164.536 332.388 164.151 332.389 163.749V150.768C332.387 150.366 332.227 149.981 331.943 149.697C331.659 149.413 331.274 149.253 330.872 149.252Z" fill="white"/>
<path d="M330.872 171.382H317.891C317.489 171.382 317.104 171.542 316.819 171.826C316.535 172.11 316.375 172.496 316.375 172.898V185.878C316.375 186.078 316.414 186.275 316.49 186.459C316.566 186.643 316.677 186.81 316.818 186.951C316.959 187.092 317.126 187.204 317.311 187.28C317.495 187.356 317.692 187.395 317.891 187.394H330.872C331.274 187.394 331.66 187.234 331.944 186.95C332.229 186.666 332.388 186.28 332.389 185.878V172.898C332.387 172.496 332.227 172.111 331.943 171.827C331.659 171.543 331.274 171.383 330.872 171.382Z" fill="#E6E6E6"/>
<path d="M330.872 193.511H317.891C317.692 193.511 317.495 193.55 317.311 193.626C317.126 193.702 316.959 193.814 316.818 193.955C316.677 194.096 316.566 194.263 316.49 194.447C316.414 194.631 316.375 194.828 316.375 195.028V208.008C316.375 208.207 316.414 208.405 316.49 208.589C316.566 208.773 316.677 208.94 316.818 209.081C316.959 209.222 317.126 209.334 317.311 209.41C317.495 209.486 317.692 209.525 317.891 209.524H330.872C331.274 209.524 331.66 209.364 331.944 209.08C332.229 208.796 332.388 208.41 332.389 208.008V195.028C332.388 194.626 332.229 194.24 331.944 193.956C331.66 193.671 331.274 193.512 330.872 193.511Z" fill="#D1CEFA"/>
<path d="M358.141 104.992H345.154C344.753 104.994 344.369 105.154 344.085 105.438C343.802 105.722 343.643 106.107 343.644 106.508V119.495C343.644 119.895 343.803 120.279 344.086 120.563C344.369 120.846 344.753 121.005 345.154 121.005H358.141C358.542 121.005 358.927 120.846 359.211 120.563C359.495 120.28 359.656 119.896 359.657 119.495V106.508C359.656 106.107 359.496 105.722 359.212 105.438C358.928 105.154 358.543 104.994 358.141 104.992Z" fill="white"/>
<path d="M358.141 127.122H345.154C344.753 127.123 344.369 127.284 344.085 127.568C343.802 127.852 343.643 128.237 343.644 128.638V141.625C343.644 142.025 343.803 142.409 344.086 142.692C344.369 142.976 344.753 143.135 345.154 143.135H358.141C358.542 143.135 358.927 142.976 359.211 142.693C359.495 142.41 359.656 142.026 359.657 141.625V128.638C359.656 128.236 359.496 127.852 359.212 127.567C358.928 127.283 358.543 127.123 358.141 127.122Z" fill="white"/>
<path d="M358.141 149.252H345.154C344.753 149.253 344.369 149.414 344.085 149.698C343.802 149.982 343.643 150.367 343.644 150.768V163.749C343.643 163.947 343.682 164.144 343.757 164.328C343.833 164.512 343.944 164.679 344.084 164.82C344.225 164.961 344.391 165.072 344.575 165.149C344.758 165.225 344.955 165.264 345.154 165.265H358.141C358.543 165.264 358.929 165.105 359.213 164.82C359.497 164.536 359.657 164.151 359.657 163.749V150.768C359.656 150.366 359.496 149.981 359.212 149.697C358.928 149.413 358.543 149.253 358.141 149.252Z" fill="white"/>
<path d="M358.141 171.382H345.154C344.753 171.383 344.369 171.543 344.085 171.828C343.802 172.112 343.643 172.497 343.644 172.898V185.878C343.643 186.077 343.682 186.274 343.757 186.458C343.833 186.642 343.944 186.809 344.084 186.95C344.225 187.09 344.391 187.202 344.575 187.278C344.758 187.355 344.955 187.394 345.154 187.394H358.141C358.543 187.394 358.929 187.234 359.213 186.95C359.497 186.666 359.657 186.28 359.657 185.878V172.898C359.656 172.496 359.496 172.111 359.212 171.827C358.928 171.543 358.543 171.383 358.141 171.382Z" fill="#D1CEFA"/>
<path d="M358.141 193.511H345.154C344.955 193.512 344.758 193.551 344.575 193.627C344.391 193.704 344.225 193.816 344.084 193.956C343.944 194.097 343.833 194.264 343.757 194.448C343.682 194.632 343.643 194.829 343.644 195.028V208.008C343.643 208.207 343.682 208.404 343.757 208.588C343.833 208.771 343.944 208.939 344.084 209.079C344.225 209.22 344.391 209.332 344.575 209.408C344.758 209.485 344.955 209.524 345.154 209.524H358.141C358.543 209.524 358.929 209.364 359.213 209.08C359.497 208.796 359.657 208.41 359.657 208.008V195.028C359.657 194.626 359.497 194.24 359.213 193.956C358.929 193.671 358.543 193.512 358.141 193.511Z" fill="#E6E6E6"/>
<path d="M385.409 104.992H372.423C372.021 104.994 371.637 105.154 371.354 105.438C371.071 105.722 370.912 106.107 370.912 106.508V119.495C370.912 119.895 371.071 120.279 371.355 120.563C371.638 120.846 372.022 121.005 372.423 121.005H385.409C385.811 121.005 386.196 120.846 386.48 120.563C386.764 120.28 386.924 119.896 386.926 119.495V106.508C386.925 106.107 386.764 105.722 386.48 105.438C386.196 105.154 385.811 104.994 385.409 104.992Z" fill="white"/>
<path d="M385.409 127.122H372.423C372.021 127.123 371.637 127.284 371.354 127.568C371.071 127.852 370.912 128.237 370.912 128.638V141.625C370.912 142.025 371.071 142.409 371.355 142.692C371.638 142.976 372.022 143.135 372.423 143.135H385.409C385.811 143.135 386.195 142.976 386.48 142.693C386.764 142.41 386.924 142.026 386.926 141.625V128.638C386.925 128.236 386.764 127.852 386.48 127.567C386.196 127.283 385.811 127.123 385.409 127.122Z" fill="white"/>
<path d="M385.41 149.252H372.423C372.021 149.253 371.637 149.414 371.354 149.698C371.071 149.982 370.912 150.367 370.912 150.768V163.749C370.912 163.947 370.95 164.144 371.026 164.328C371.102 164.512 371.213 164.679 371.353 164.82C371.493 164.961 371.66 165.072 371.843 165.149C372.027 165.225 372.224 165.264 372.423 165.265H385.41C385.812 165.264 386.197 165.105 386.481 164.82C386.766 164.536 386.926 164.151 386.926 163.749V150.768C386.925 150.366 386.764 149.981 386.48 149.697C386.196 149.413 385.811 149.253 385.41 149.252Z" fill="#D1CEFA"/>
<path d="M385.41 171.382H372.423C372.021 171.383 371.637 171.543 371.354 171.828C371.071 172.112 370.912 172.497 370.912 172.898V185.878C370.912 186.077 370.95 186.274 371.026 186.458C371.101 186.642 371.213 186.809 371.353 186.95C371.493 187.09 371.66 187.202 371.843 187.278C372.027 187.355 372.224 187.394 372.423 187.394H385.41C385.812 187.394 386.197 187.234 386.481 186.95C386.766 186.666 386.926 186.28 386.926 185.878V172.898C386.925 172.496 386.764 172.111 386.48 171.827C386.196 171.543 385.811 171.383 385.41 171.382Z" fill="#E6E6E6"/>
<path d="M385.41 193.511H372.423C372.224 193.512 372.027 193.551 371.843 193.627C371.66 193.704 371.493 193.816 371.353 193.956C371.213 194.097 371.101 194.264 371.026 194.448C370.95 194.632 370.912 194.829 370.912 195.028V208.008C370.912 208.207 370.95 208.404 371.026 208.588C371.101 208.771 371.213 208.939 371.353 209.079C371.493 209.22 371.66 209.332 371.843 209.408C372.027 209.485 372.224 209.524 372.423 209.524H385.41C385.812 209.524 386.197 209.364 386.481 209.08C386.766 208.796 386.926 208.41 386.926 208.008V195.028C386.926 194.626 386.766 194.24 386.481 193.956C386.197 193.671 385.812 193.512 385.41 193.511Z" fill="white"/>
<path d="M412.678 104.992H399.691C399.29 104.994 398.906 105.154 398.623 105.438C398.339 105.722 398.181 106.107 398.181 106.508V119.495C398.181 119.895 398.34 120.279 398.623 120.563C398.906 120.846 399.291 121.005 399.691 121.005H412.678C413.079 121.005 413.464 120.846 413.748 120.563C414.032 120.28 414.193 119.896 414.194 119.495V106.508C414.193 106.107 414.033 105.722 413.749 105.438C413.465 105.154 413.08 104.994 412.678 104.992Z" fill="#D1CEFA"/>
<path d="M412.678 127.122H399.691C399.29 127.123 398.906 127.284 398.623 127.568C398.339 127.852 398.181 128.237 398.181 128.638V141.625C398.181 142.025 398.34 142.409 398.623 142.692C398.906 142.976 399.291 143.135 399.691 143.135H412.678C413.079 143.135 413.464 142.976 413.748 142.693C414.032 142.41 414.193 142.026 414.194 141.625V128.638C414.193 128.236 414.033 127.852 413.749 127.567C413.465 127.283 413.08 127.123 412.678 127.122Z" fill="#D1CEFA"/>
<path d="M412.678 149.252H399.691C399.29 149.253 398.906 149.414 398.623 149.698C398.339 149.982 398.181 150.367 398.181 150.768V163.749C398.18 163.947 398.219 164.144 398.294 164.328C398.37 164.512 398.481 164.679 398.621 164.82C398.762 164.961 398.928 165.072 399.112 165.149C399.296 165.225 399.492 165.264 399.691 165.265H412.678C413.08 165.264 413.466 165.105 413.75 164.82C414.034 164.536 414.194 164.151 414.194 163.749V150.768C414.193 150.366 414.033 149.981 413.749 149.697C413.465 149.413 413.08 149.253 412.678 149.252Z" fill="#E6E6E6"/>
<path d="M412.678 171.382H399.691C399.29 171.383 398.906 171.543 398.623 171.828C398.339 172.112 398.181 172.497 398.181 172.898V185.878C398.18 186.077 398.219 186.274 398.294 186.458C398.37 186.642 398.481 186.809 398.621 186.95C398.762 187.09 398.928 187.202 399.112 187.278C399.296 187.355 399.492 187.394 399.691 187.394H412.678C413.08 187.394 413.466 187.234 413.75 186.95C414.034 186.666 414.194 186.28 414.194 185.878V172.898C414.193 172.496 414.033 172.111 413.749 171.827C413.465 171.543 413.08 171.383 412.678 171.382Z" fill="white"/>
<path d="M412.678 193.511H399.691C399.492 193.512 399.296 193.551 399.112 193.627C398.928 193.704 398.762 193.816 398.621 193.956C398.481 194.097 398.37 194.264 398.294 194.448C398.219 194.632 398.18 194.829 398.181 195.028V208.008C398.18 208.207 398.219 208.404 398.294 208.588C398.37 208.771 398.481 208.939 398.621 209.079C398.762 209.22 398.928 209.332 399.112 209.408C399.296 209.485 399.492 209.524 399.691 209.524H412.678C413.08 209.524 413.466 209.364 413.75 209.08C414.034 208.796 414.194 208.41 414.194 208.008V195.028C414.194 194.626 414.034 194.24 413.75 193.956C413.466 193.671 413.08 193.512 412.678 193.511Z" fill="#D1CEFA"/>
<path d="M439.947 104.992H426.96C426.558 104.994 426.174 105.154 425.891 105.438C425.608 105.722 425.449 106.107 425.449 106.508V119.495C425.449 119.895 425.608 120.279 425.892 120.563C426.175 120.846 426.559 121.005 426.96 121.005H439.947C440.348 121.005 440.733 120.846 441.017 120.563C441.301 120.28 441.461 119.896 441.463 119.495V106.508C441.462 106.107 441.301 105.722 441.017 105.438C440.733 105.154 440.348 104.994 439.947 104.992Z" fill="#D1CEFA"/>
<path d="M439.947 127.122H426.96C426.558 127.123 426.174 127.284 425.891 127.568C425.608 127.852 425.449 128.237 425.449 128.638V141.625C425.449 142.025 425.608 142.409 425.892 142.692C426.175 142.976 426.559 143.135 426.96 143.135H439.947C440.348 143.135 440.733 142.976 441.017 142.693C441.301 142.41 441.461 142.026 441.463 141.625V128.638C441.462 128.236 441.301 127.852 441.017 127.567C440.733 127.283 440.348 127.123 439.947 127.122Z" fill="#D1CEFA"/>
<path d="M439.947 149.252H426.96C426.558 149.253 426.174 149.414 425.891 149.698C425.608 149.982 425.449 150.367 425.449 150.768V163.749C425.449 163.947 425.487 164.144 425.563 164.328C425.639 164.512 425.75 164.679 425.89 164.82C426.03 164.961 426.197 165.072 426.381 165.149C426.564 165.225 426.761 165.264 426.96 165.265H439.947C440.349 165.264 440.734 165.105 441.018 164.82C441.303 164.536 441.463 164.151 441.463 163.749V150.768C441.462 150.366 441.302 149.981 441.017 149.697C440.733 149.413 440.348 149.253 439.947 149.252Z" fill="#E6E6E6"/>
<path d="M439.947 171.382H426.96C426.558 171.383 426.174 171.543 425.891 171.828C425.608 172.112 425.449 172.497 425.449 172.898V185.878C425.449 186.077 425.487 186.274 425.563 186.458C425.639 186.642 425.75 186.809 425.89 186.95C426.03 187.09 426.197 187.202 426.381 187.278C426.564 187.355 426.761 187.394 426.96 187.394H439.947C440.349 187.394 440.734 187.234 441.019 186.95C441.303 186.666 441.463 186.28 441.463 185.878V172.898C441.462 172.496 441.301 172.111 441.017 171.827C440.733 171.543 440.348 171.383 439.947 171.382Z" fill="#D1CEFA"/>
<path d="M439.947 193.511H426.96C426.761 193.512 426.564 193.551 426.381 193.627C426.197 193.704 426.03 193.816 425.89 193.956C425.75 194.097 425.639 194.264 425.563 194.448C425.487 194.632 425.449 194.829 425.449 195.028V208.008C425.449 208.207 425.487 208.404 425.563 208.588C425.639 208.771 425.75 208.939 425.89 209.079C426.03 209.22 426.197 209.332 426.38 209.408C426.564 209.485 426.761 209.524 426.96 209.524H439.947C440.349 209.524 440.734 209.364 441.019 209.08C441.303 208.796 441.463 208.41 441.463 208.008V195.028C441.463 194.626 441.303 194.24 441.019 193.956C440.734 193.671 440.349 193.512 439.947 193.511Z" fill="#D1CEFA"/>
<path d="M467.215 104.992H454.228C453.827 104.994 453.443 105.154 453.16 105.438C452.877 105.722 452.718 106.107 452.718 106.508V119.495C452.718 119.895 452.877 120.279 453.16 120.563C453.443 120.846 453.828 121.005 454.228 121.005H467.215C467.616 121.005 468.001 120.846 468.285 120.563C468.57 120.28 468.73 119.896 468.731 119.495V106.508C468.73 106.107 468.57 105.722 468.286 105.438C468.002 105.154 467.617 104.994 467.215 104.992Z" fill="#E6E6E6"/>
<path d="M467.215 127.122H454.228C453.827 127.123 453.443 127.284 453.16 127.568C452.877 127.852 452.718 128.237 452.718 128.638V141.625C452.718 142.025 452.877 142.409 453.16 142.692C453.443 142.976 453.828 143.135 454.228 143.135H467.215C467.616 143.135 468.001 142.976 468.285 142.693C468.57 142.41 468.73 142.026 468.731 141.625V128.638C468.73 128.236 468.57 127.852 468.286 127.567C468.002 127.283 467.617 127.123 467.215 127.122Z" fill="#D1CEFA"/>
<path d="M467.215 149.252H454.228C453.827 149.253 453.443 149.414 453.16 149.698C452.877 149.982 452.718 150.367 452.718 150.768V163.749C452.717 163.947 452.756 164.144 452.831 164.328C452.907 164.512 453.018 164.679 453.159 164.82C453.299 164.961 453.466 165.072 453.649 165.149C453.833 165.225 454.029 165.264 454.228 165.265H467.215C467.617 165.264 468.003 165.105 468.287 164.82C468.571 164.536 468.731 164.151 468.731 163.749V150.768C468.73 150.366 468.57 149.981 468.286 149.697C468.002 149.413 467.617 149.253 467.215 149.252Z" fill="#D1CEFA"/>
<path d="M467.215 171.382H454.228C453.827 171.383 453.443 171.543 453.16 171.828C452.877 172.112 452.718 172.497 452.718 172.898V185.878C452.717 186.077 452.756 186.274 452.831 186.458C452.907 186.642 453.018 186.809 453.159 186.95C453.299 187.09 453.466 187.202 453.649 187.278C453.833 187.355 454.029 187.394 454.228 187.394H467.215C467.617 187.394 468.003 187.234 468.287 186.95C468.571 186.666 468.731 186.28 468.731 185.878V172.898C468.73 172.496 468.57 172.111 468.286 171.827C468.002 171.543 467.617 171.383 467.215 171.382Z" fill="#D1CEFA"/>
<path d="M467.215 193.511H454.228C454.029 193.512 453.833 193.551 453.649 193.627C453.466 193.704 453.299 193.816 453.159 193.956C453.018 194.097 452.907 194.264 452.831 194.448C452.756 194.632 452.717 194.829 452.718 195.028V208.008C452.717 208.207 452.756 208.404 452.831 208.588C452.907 208.771 453.018 208.939 453.159 209.079C453.299 209.22 453.466 209.332 453.649 209.408C453.833 209.485 454.029 209.524 454.228 209.524H467.215C467.617 209.524 468.003 209.364 468.287 209.08C468.571 208.796 468.731 208.41 468.731 208.008V195.028C468.731 194.626 468.571 194.24 468.287 193.956C468.003 193.671 467.617 193.512 467.215 193.511Z" fill="#E6E6E6"/>
<path d="M494.484 104.992H481.497C481.096 104.994 480.711 105.154 480.428 105.438C480.145 105.722 479.986 106.107 479.986 106.508V119.495C479.986 119.895 480.146 120.279 480.429 120.563C480.712 120.846 481.096 121.005 481.497 121.005H494.484C494.885 121.005 495.27 120.846 495.554 120.563C495.838 120.28 495.999 119.896 496 119.495V106.508C495.999 106.107 495.839 105.722 495.555 105.438C495.27 105.154 494.886 104.994 494.484 104.992Z" fill="#E6E6E6"/>
<path d="M494.484 127.122H481.497C481.096 127.124 480.711 127.284 480.428 127.568C480.145 127.852 479.986 128.237 479.986 128.638V141.625C479.986 142.025 480.146 142.409 480.429 142.692C480.712 142.976 481.096 143.135 481.497 143.135H494.484C494.885 143.135 495.27 142.976 495.554 142.693C495.838 142.41 495.999 142.026 496 141.625V128.638C495.999 128.236 495.839 127.852 495.555 127.567C495.27 127.283 494.886 127.123 494.484 127.122Z" fill="#E6E6E6"/>
<path d="M494.484 149.252H481.497C481.096 149.253 480.711 149.414 480.428 149.698C480.145 149.982 479.986 150.367 479.986 150.768V163.749C479.986 163.947 480.024 164.144 480.1 164.328C480.176 164.512 480.287 164.679 480.427 164.82C480.567 164.961 480.734 165.072 480.918 165.149C481.101 165.225 481.298 165.264 481.497 165.265H494.484C494.886 165.264 495.271 165.105 495.556 164.82C495.84 164.536 496 164.151 496 163.749V150.768C495.999 150.366 495.839 149.981 495.555 149.697C495.27 149.413 494.886 149.253 494.484 149.252Z" fill="#D1CEFA"/>
<path d="M494.484 171.382H481.497C481.096 171.383 480.711 171.543 480.428 171.828C480.145 172.112 479.986 172.497 479.986 172.898V185.878C479.986 186.077 480.024 186.274 480.1 186.458C480.176 186.642 480.287 186.809 480.427 186.95C480.567 187.09 480.734 187.202 480.918 187.278C481.101 187.355 481.298 187.394 481.497 187.394H494.484C494.886 187.394 495.271 187.234 495.556 186.95C495.84 186.666 496 186.28 496 185.878V172.898C495.999 172.496 495.839 172.111 495.555 171.827C495.27 171.543 494.886 171.383 494.484 171.382Z" fill="#E6E6E6"/>
<path d="M494.484 193.511H481.497C481.298 193.512 481.101 193.551 480.918 193.627C480.734 193.704 480.567 193.816 480.427 193.956C480.287 194.097 480.176 194.264 480.1 194.448C480.024 194.632 479.986 194.829 479.986 195.028V208.008C479.986 208.207 480.024 208.404 480.1 208.588C480.176 208.771 480.287 208.939 480.427 209.079C480.567 209.22 480.734 209.332 480.918 209.408C481.101 209.485 481.298 209.524 481.497 209.524H494.484C494.886 209.524 495.271 209.364 495.556 209.08C495.84 208.796 496 208.41 496 208.008V195.028C496 194.626 495.84 194.24 495.556 193.956C495.271 193.671 494.886 193.512 494.484 193.511Z" fill="#E6E6E6"/>
<path d="M195.997 384.896H195.636L195.945 384.855L195.997 384.896Z" fill="#2F2E41"/>
<path d="M164.926 142.899C186.931 142.899 204.769 125.062 204.769 103.058C204.769 81.0549 186.931 63.2177 164.926 63.2177C142.922 63.2177 125.083 81.0549 125.083 103.058C125.083 125.062 142.922 142.899 164.926 142.899Z" fill="#FFB6B6"/>
<path d="M199.818 73.8478C199.818 73.8478 210.238 53.9275 187.312 52.1166C187.312 52.1166 167.768 34.3881 147.847 48.8756C147.847 48.8756 136.98 48.8756 131.038 61.1712C131.038 61.1712 122.492 57.9302 120.614 66.604C120.614 66.604 114.361 84.7134 120.614 101.012C126.868 117.31 128.945 119.121 128.945 119.121C128.945 119.121 118.669 84.9507 143.681 83.1397C168.693 81.3287 196.683 65.6986 198.767 85.6188C200.852 105.539 203.988 110.447 203.988 110.447C203.988 110.447 223.786 81.997 199.818 73.8478Z" fill="#2F2E41"/>
<path d="M267.99 201.244L267.862 201.92L266.421 209.524L256.467 262.123L255.878 265.219L254.642 271.768L252.951 280.701L249.201 300.498L248.128 306.172L247.725 308.301L247.585 309.047L246.472 314.919L246.133 316.692L243.416 336.827L241.042 354.374L248.985 362.316L244.25 367.051L241.142 384.854L241.147 384.895H114.292C109.161 381.571 104.103 378.144 99.1187 374.614L100.163 366.8C100.163 366.8 103.755 352.846 102.244 351.178C100.74 349.51 97.4391 346.531 97.4391 346.531L101.597 336.827L102.174 335.48L101.206 315.403L101.183 314.919L100.862 308.301L100.821 307.449L100.757 306.172L99.5269 280.701L99.5035 280.281L99.1304 272.56L98.7804 265.219L98.6288 262.123L97.1301 231.141L96.1154 210.101L95.229 191.785L98.7921 190.578L136.902 177.627L152.688 157.107L185.543 157.351L201.627 157.474L228.464 182.362L234.569 185.278L234.616 185.301L238.995 187.394L250.099 192.695L261.838 198.305L267.862 201.18L267.99 201.244Z" fill="#CACACA"/>
<path d="M156.934 325.125C154.526 326.057 151.943 326.451 149.367 326.277C146.791 326.104 144.284 325.368 142.023 324.121C139.762 322.874 137.802 321.146 136.281 319.06C134.76 316.973 133.715 314.579 133.22 312.045L71.0791 303.229L92.681 278.795L148.379 290.913C152.691 290.363 157.056 291.413 160.645 293.866C164.234 296.318 166.799 300.002 167.853 304.219C168.908 308.436 168.378 312.894 166.366 316.747C164.353 320.6 160.997 323.581 156.934 325.125Z" fill="#FFB6B6"/>
<path d="M129.227 280.701C128.076 279.242 126.447 278.236 124.626 277.861L99.1303 272.561L96.5119 272.018C94.9902 271.701 93.5528 271.065 92.2936 270.154C91.0344 269.243 89.9818 268.076 89.2049 266.729C88.3989 265.316 87.9113 263.744 87.7761 262.123C87.6546 260.649 87.8311 259.165 88.2951 257.761L97.13 231.141L102.862 213.869C103.557 211.785 103.967 209.618 104.081 207.425C104.401 201.356 102.523 195.376 98.792 190.578C95.5119 186.362 90.9625 183.312 85.8158 181.88C80.6691 180.448 75.1982 180.709 70.2113 182.624C70.0655 182.677 69.9139 182.735 69.7681 182.794C66.1917 184.221 62.9965 186.462 60.4349 189.337C57.8733 192.212 56.0155 195.644 55.0083 199.36L48.7802 222.015L35.9331 268.718C34.6471 273.397 34.3873 278.299 35.1715 283.088C35.9557 287.877 37.7654 292.44 40.4767 296.464C43.1881 300.489 46.737 303.88 50.8807 306.406C55.0243 308.932 59.6649 310.533 64.4847 311.1L101.206 315.403L118.2 317.397C120.165 317.634 122.146 317.121 123.75 315.961C125.354 314.802 126.462 313.08 126.854 311.14C126.881 311.035 126.903 310.928 126.918 310.82L127.326 308.301L130.784 287.086L130.819 286.871C130.999 285.788 130.951 284.68 130.677 283.617C130.402 282.555 129.909 281.561 129.227 280.701Z" fill="#CACACA"/>
<path d="M196.515 325.805C199.03 326.389 201.643 326.414 204.168 325.879C206.694 325.344 209.072 324.262 211.135 322.708C213.197 321.155 214.894 319.168 216.105 316.888C217.317 314.608 218.014 312.09 218.147 309.512L278.424 292.022L253.592 270.878L200.159 290.728C195.812 290.792 191.64 292.447 188.432 295.382C185.225 298.316 183.205 302.324 182.756 306.648C182.307 310.972 183.459 315.31 185.995 318.841C188.531 322.371 192.274 324.849 196.515 325.805Z" fill="#FFB6B6"/>
<path d="M308.351 252.897L279.683 186.922C277.338 181.506 273.15 177.095 267.862 174.472C266.227 173.668 264.511 173.042 262.742 172.606C262.468 172.536 262.194 172.472 261.92 172.42C258.168 171.601 254.278 171.673 250.56 172.63C247.161 173.503 243.984 175.082 241.237 177.266C238.49 179.449 236.234 182.187 234.616 185.301C234.598 185.327 234.583 185.354 234.569 185.383C232.762 188.878 231.801 192.749 231.764 196.684C231.726 200.619 232.613 204.508 234.353 208.037L234.709 208.749L254.968 249.434C255.66 250.825 256.05 252.347 256.112 253.899C256.174 255.452 255.908 257 255.329 258.442C254.751 259.884 253.874 261.188 252.757 262.267C251.639 263.347 250.306 264.178 248.845 264.706L247.422 265.219L221.833 274.462C219.913 275.147 218.334 276.55 217.427 278.376C216.521 280.202 216.359 282.309 216.975 284.252L217.039 284.456L224.212 307.408C224.247 307.513 224.282 307.618 224.323 307.723C224.386 307.921 224.464 308.114 224.556 308.301C225.319 310.01 226.666 311.392 228.356 312.197C230.046 313.002 231.968 313.177 233.776 312.692L247.585 309.047L250.402 308.301L286.062 298.883C290.754 297.643 295.123 295.404 298.87 292.319C302.616 289.234 305.651 285.376 307.768 281.009C309.885 276.642 311.033 271.869 311.133 267.017C311.234 262.165 310.285 257.348 308.351 252.897Z" fill="#CACACA"/>
<path d="M26.1827 308.301C34.4464 318.379 43.3585 327.908 52.8623 336.827H316.433C318.973 336.831 321.407 337.842 323.202 339.638C324.997 341.434 326.006 343.869 326.009 346.408L326.388 413.194C342.602 405.745 357.787 396.233 371.565 384.895C375.391 381.752 379.098 378.473 382.686 375.057C385.036 372.83 387.33 370.548 389.567 368.211C406.341 350.738 419.924 330.461 429.7 308.301H26.1827Z" fill="#3F3D56"/>
<path d="M389.567 368.211C387.334 370.55 385.04 372.832 382.686 375.057H326.58V368.211H389.567Z" fill="white"/>
<path d="M267.465 149.252C267.188 148.74 266.778 148.313 266.278 148.015C265.778 147.718 265.207 147.561 264.625 147.561H73.442C72.5849 147.563 71.7635 147.905 71.158 148.512C70.5524 149.118 70.212 149.94 70.2113 150.797V265.219H267.862V150.797C267.865 150.257 267.728 149.724 267.465 149.252Z" fill="#3F3D56"/>
<path d="M70.0382 262.121V276.241C70.0382 276.826 70.1535 277.406 70.3775 277.947C70.6015 278.488 70.9299 278.979 71.3438 279.393C71.7577 279.807 72.2491 280.135 72.7899 280.359C73.3308 280.583 73.9104 280.698 74.4958 280.698H147.447V308.564H146.478C146.402 308.564 146.327 308.579 146.257 308.608C146.186 308.637 146.122 308.68 146.069 308.734C146.015 308.787 145.972 308.851 145.943 308.922C145.914 308.992 145.899 309.067 145.899 309.143V311.081C145.899 311.157 145.914 311.233 145.943 311.303C145.972 311.373 146.015 311.437 146.069 311.491C146.122 311.545 146.186 311.587 146.256 311.616C146.327 311.645 146.402 311.66 146.478 311.66H191.765C191.841 311.66 191.917 311.645 191.987 311.616C192.057 311.587 192.121 311.545 192.175 311.491C192.229 311.437 192.271 311.373 192.3 311.303C192.329 311.233 192.344 311.157 192.344 311.081V309.143C192.344 309.067 192.329 308.992 192.3 308.922C192.271 308.851 192.229 308.787 192.175 308.734C192.121 308.68 192.057 308.637 191.987 308.608C191.917 308.579 191.841 308.564 191.765 308.564H190.796V280.698H263.748C264.333 280.698 264.913 280.583 265.454 280.359C265.994 280.135 266.486 279.807 266.9 279.393C267.314 278.979 267.642 278.488 267.866 277.947C268.09 277.406 268.205 276.826 268.205 276.241V262.121H70.0382Z" fill="#3F3D56"/>
<path d="M166.727 221.595C176.81 221.595 184.984 213.422 184.984 203.34C184.984 193.257 176.81 185.084 166.727 185.084C156.644 185.084 148.471 193.257 148.471 203.34C148.471 213.422 156.644 221.595 166.727 221.595Z" fill="#D1CEFA"/>
<path d="M213.243 100.881H210.327C210.327 78.8389 188.511 64.3948 166.503 64.3831C163.302 64.3738 160.108 64.6844 156.968 65.3103C153.434 66.0159 149.766 66.8614 146.162 67.9636C131.951 72.3195 118.771 80.7399 118.771 100.881C118.768 104.793 119.266 108.689 120.252 112.474L117.43 113.209C116.383 109.183 115.854 105.041 115.855 100.881C115.855 83.2824 123.081 71.1941 135.56 63.9866C142.121 60.1963 150.128 57.753 159.301 56.5634C163.118 56.0556 166.977 55.9383 170.818 56.2135C196.127 58.0328 213.243 77.4394 213.243 100.881Z" fill="#D1CEFA"/>
<path d="M218.101 102.497L216.952 94.0061C216.668 91.862 215.636 89.8872 214.036 88.4314C213.009 87.4823 211.78 86.7792 210.441 86.3751C209.103 85.971 207.69 85.8765 206.309 86.0989L204.484 86.3496C203.984 86.4154 203.503 86.5796 203.068 86.8329C202.632 87.0861 202.251 87.4234 201.947 87.8249C201.64 88.2252 201.416 88.6822 201.287 89.1696C201.158 89.6571 201.127 90.1652 201.195 90.6648L203.848 110.223C203.958 111.02 204.315 111.763 204.87 112.346C205.424 112.929 206.148 113.322 206.939 113.471C207.173 113.518 207.412 113.541 207.65 113.541C207.822 113.541 207.994 113.529 208.164 113.506L210.205 113.232C211.449 113.067 212.647 112.649 213.724 112.004C214.801 111.359 215.735 110.501 216.468 109.482C216.625 109.261 216.777 109.033 216.917 108.8C218.01 106.892 218.427 104.671 218.101 102.497Z" fill="#D1CEFA"/>
<path d="M203.306 86.7054C202.771 86.9655 202.305 87.3493 201.947 87.825C201.64 88.2252 201.416 88.6823 201.287 89.1697C201.158 89.6571 201.127 90.1653 201.195 90.6648L203.848 110.223C203.958 111.02 204.315 111.763 204.87 112.346C205.424 112.929 206.148 113.322 206.939 113.471L203.306 86.7054Z" fill="white"/>
<path d="M218.101 102.496L216.952 94.0061C216.669 91.862 215.636 89.8872 214.036 88.4314L216.678 107.89C216.717 108.203 216.798 108.509 216.917 108.8C218.01 106.892 218.427 104.671 218.101 102.496Z" fill="#3F3D56"/>
<path d="M209.021 108.614C209.819 108.506 210.22 106.607 209.917 104.373C209.614 102.139 208.722 100.416 207.924 100.524C207.126 100.632 206.725 102.531 207.028 104.765C207.331 106.999 208.223 108.722 209.021 108.614Z" fill="#3F3D56"/>
<path d="M207.272 98.1176C208.07 98.0094 208.471 96.1107 208.168 93.8768C207.865 91.6429 206.972 89.9197 206.174 90.0279C205.376 90.1361 204.975 92.0348 205.278 94.2687C205.581 96.5027 206.474 98.2259 207.272 98.1176Z" fill="#3F3D56"/>
<path d="M218.352 102.2C219.15 102.091 219.551 100.193 219.248 97.9587C218.945 95.7248 218.052 94.0016 217.254 94.1098C216.456 94.218 216.055 96.1167 216.358 98.3506C216.661 100.585 217.554 102.308 218.352 102.2Z" fill="#3F3D56"/>
<path d="M166.503 64.3831C163.302 64.3738 160.108 64.6844 156.968 65.3103C153.434 66.0159 149.766 66.8614 146.162 67.9635C140.535 67.6895 136.394 66.2316 135.56 63.9866C142.121 60.1962 150.128 57.7529 159.301 56.5633C163.118 56.0555 166.977 55.9383 170.818 56.2135C171.225 56.4518 171.576 56.7735 171.85 57.1575C172.123 57.5414 172.312 57.9788 172.404 58.441C172.678 60.4703 170.363 62.6279 166.503 64.3831Z" fill="#3F3D56"/>
<path d="M129.274 121.116L124.784 102.45C124.623 101.776 124.268 101.165 123.762 100.693C123.255 100.221 122.621 99.9093 121.938 99.7967C121.745 99.7666 121.55 99.751 121.355 99.75C121.079 99.751 120.805 99.7842 120.538 99.8491L118.8 100.269C116.563 100.81 114.631 102.217 113.43 104.18C112.228 106.144 111.855 108.504 112.391 110.742L114.403 119.116C114.863 121.087 115.957 122.853 117.517 124.142C117.77 124.346 118.035 124.535 118.31 124.708C119.288 125.321 120.378 125.731 121.517 125.915C122.656 126.1 123.82 126.054 124.941 125.781L126.673 125.361C127.131 125.254 127.562 125.054 127.938 124.772C128.498 124.364 128.925 123.798 129.162 123.147C129.4 122.496 129.439 121.789 129.274 121.116Z" fill="#D1CEFA"/>
<path d="M119.86 117.643C120.643 117.454 120.85 115.525 120.323 113.333C119.795 111.141 118.733 109.517 117.95 109.706C117.167 109.894 116.96 111.824 117.488 114.015C118.015 116.207 119.077 117.831 119.86 117.643Z" fill="#3F3D56"/>
<path d="M114.029 119.392C114.811 119.204 115.018 117.274 114.491 115.083C113.964 112.891 112.901 111.267 112.118 111.455C111.336 111.643 111.129 113.573 111.656 115.765C112.184 117.957 113.246 119.581 114.029 119.392Z" fill="#3F3D56"/>
<path d="M129.559 121.046L125.069 102.38C124.894 101.651 124.508 100.99 123.959 100.48C123.411 99.9697 122.724 99.6326 121.984 99.5109L128.113 125.005C128.719 124.562 129.179 123.949 129.436 123.245C129.694 122.54 129.737 121.775 129.559 121.046Z" fill="white"/>
<path d="M113.406 107.045C113.282 106.526 113.05 106.039 112.724 105.616C112.092 107.251 111.976 109.04 112.391 110.742L114.403 119.116C114.863 121.087 115.957 122.853 117.517 124.142L113.406 107.045Z" fill="#3F3D56"/>
</g>
<defs>
<clipPath id="clip0_118_370">
<rect width="496" height="432" fill="white"/>
</clipPath>
</defs>
</svg>
